PathFileType	4	(X/Y/Z)	C:/Users/opensim2020/Desktop/walking_exp_matlab/subject03_walking11_straight_03.trc	
DataRate	CameraRate	NumFrames	NumMarkers	Units	OrigDataRate	OrigDataStartFrame	OrigNumFrames	
100.00	100.00	5	46	mm	100.00	2740	380	
Frame#	Time	LFHD			RFHD			LBHD			RBHD			C7			T10			CLAV			STRN			RBAK			LSHO			LUPA			LELB			LFRM			LWRA			LWRB			LFIN			RSHO			RUPA			RELB			RFRM			RWRA			RWRB			RFIN			LASI			RASI			LPSI			RPSI			LTHI			LKNE			LTIB			LANK			LHEE			LTOE			RTHI			RKNE			RTIB			RANK			RHEE			RTOE			*39			*40			*41			*42			*43			*44			*45			
		X1	Y1	Z1	X2	Y2	Z2	X3	Y3	Z3	X4	Y4	Z4	X5	Y5	Z5	X6	Y6	Z6	X7	Y7	Z7	X8	Y8	Z8	X9	Y9	Z9	X10	Y10	Z10	X11	Y11	Z11	X12	Y12	Z12	X13	Y13	Z13	X14	Y14	Z14	X15	Y15	Z15	X16	Y16	Z16	X17	Y17	Z17	X18	Y18	Z18	X19	Y19	Z19	X20	Y20	Z20	X21	Y21	Z21	X22	Y22	Z22	X23	Y23	Z23	X24	Y24	Z24	X25	Y25	Z25	X26	Y26	Z26	X27	Y27	Z27	X28	Y28	Z28	X29	Y29	Z29	X30	Y30	Z30	X31	Y31	Z31	X32	Y32	Z32	X33	Y33	Z33	X34	Y34	Z34	X35	Y35	Z35	X36	Y36	Z36	X37	Y37	Z37	X38	Y38	Z38	X39	Y39	Z39	X40	Y40	Z40	X41	Y41	Z41	X42	Y42	Z42	X43	Y43	Z43	X44	Y44	Z44	X45	Y45	Z45	X46	Y46	Z46	

1	0.000	1318.92358	-1111.72058	1627.46948	1451.36340	-1113.33447	1638.13562	1325.81470	-1231.03162	1564.30640	1456.39124	-1228.87012	1575.46912	1386.49695	-1252.13733	1425.32495	1398.76990	-1304.29517	1116.57031	1392.32764	-1132.44812	1344.04651	1395.09888	-1098.97632	1175.90967	1492.43054	-1312.34070	1259.71301	1234.31812	-1173.34595	1375.21045	1164.64575	-1177.03003	1178.39539	1155.44421	-1162.94580	1055.84033	1165.52234	-1124.82715	931.26306	1203.02551	-1101.52795	817.33337	1148.73547	-1113.16943	819.40381	1161.90137	-1083.41553	743.13831	1550.16748	-1175.33386	1376.11206	1630.66931	-1173.29810	1155.64063	1645.66895	-1156.27808	1044.05017	1652.47095	-1141.14319	908.14996	1619.07971	-1114.53906	810.79797	1665.24902	-1142.67773	808.26001	1657.41028	-1121.95691	736.83728	1288.31738	-1143.89758	944.98035	1524.31702	-1152.01245	941.85962	1333.03357	-1306.18176	976.73846	1482.52734	-1309.79907	977.76581	1251.30237	-1199.67188	646.98535	1296.42664	-1190.09033	470.30145	1294.91467	-1235.01953	279.40268	1339.83655	-1246.31299	70.12113	1375.16333	-1286.55640	34.90269	1366.94287	-1093.54016	35.07697	1569.49683	-1172.62073	645.10120	1548.32251	-1122.70898	471.55576	1558.69800	-1253.59607	335.53217	1526.13562	-1405.80347	180.56348	1475.83960	-1462.42517	181.91678	1505.61401	-1327.67432	62.08779	1367.91431	-1203.09607	1677.63184																		 
2	0.010	1319.28857	-1106.56726	1627.84363	1451.80701	-1108.32629	1638.25146	1325.90234	-1226.07568	1564.91711	1456.36084	-1223.91028	1575.75195	1386.07849	-1247.26624	1425.56604	1397.74133	-1299.19568	1116.74316	1392.41406	-1127.76526	1344.32288	1395.40613	-1093.40454	1176.81079	1491.48889	-1307.87903	1259.81091	1234.37451	-1167.67163	1375.75342	1164.23193	-1167.92920	1179.56421	1154.91541	-1150.82471	1057.21240	1164.51489	-1110.94788	933.45886	1201.73022	-1086.01941	819.83893	1147.27917	-1097.10718	821.95819	1160.38977	-1066.38025	745.86371	1550.05127	-1171.33105	1376.41931	1630.97473	-1170.45203	1156.13623	1646.24341	-1153.84204	1044.57349	1653.27869	-1138.71680	908.61774	1620.19739	-1111.73730	811.21576	1666.11035	-1140.31921	808.78082	1658.53821	-1119.65198	737.37292	1287.72876	-1138.24536	945.10376	1523.77539	-1146.68994	942.76410	1332.26892	-1300.69690	976.74530	1481.69055	-1304.54871	978.11578	1252.08337	-1193.82544	646.08722	1296.02820	-1187.21875	470.14059	1294.72119	-1233.62659	279.59558	1339.71875	-1246.29810	70.26178	1375.17798	-1287.03333	35.33155	1367.02148	-1093.52197	35.05087	1569.20471	-1163.63330	646.52661	1548.03601	-1110.61548	473.87296	1557.79590	-1238.75940	335.21967	1524.92615	-1388.27051	177.63570	1474.63855	-1445.05420	177.54387	1505.19373	-1306.08057	62.02179	1367.84937	-1197.69189	1678.18481																		 
3	0.020	1319.69775	-1101.19019	1628.20398	1452.28638	-1103.44202	1638.48694	1325.99634	-1221.03088	1565.46460	1456.64575	-1219.17932	1576.14685	1385.64453	-1242.43787	1425.75916	1396.64954	-1294.06580	1116.86584	1392.42676	-1120.76501	1345.75964	1395.46143	-1088.39294	1177.19641	1490.46472	-1303.42419	1259.85132	1234.42957	-1162.06213	1376.41296	1163.81824	-1158.98022	1180.76563	1154.01855	-1139.82068	1059.02795	1163.63953	-1097.25354	935.85333	1200.39624	-1070.64001	822.29523	1145.93445	-1081.23450	824.69714	1158.97424	-1049.80481	748.76373	1549.89929	-1167.56531	1376.66553	1631.05017	-1167.30566	1156.46960	1646.81702	-1151.24890	1044.95752	1654.00745	-1136.09265	909.08221	1621.31018	-1108.81519	811.73364	1666.92029	-1137.83154	809.16382	1660.28955	-1117.11633	738.31970	1287.12036	-1132.70911	945.21515	1523.15161	-1141.29541	943.55310	1331.62134	-1295.21313	976.66327	1480.99084	-1299.26184	978.39038	1251.47131	-1190.36914	646.44067	1295.77344	-1184.32617	469.96970	1294.54932	-1232.27380	279.77451	1339.59729	-1246.25208	70.39085	1375.11072	-1287.11987	35.66273	1367.02576	-1093.50122	34.99496	1569.01990	-1154.58130	647.94745	1547.70520	-1098.80518	476.16934	1557.13855	-1224.14624	334.82809	1523.76917	-1370.06970	173.93022	1473.36450	-1426.90247	172.00365	1504.61194	-1284.19849	61.41915	1368.56165	-1192.73804	1678.52307																		 
4	0.030	1320.15015	-1096.18372	1628.59229	1452.53589	-1098.22131	1638.38635	1326.18884	-1216.03101	1566.04443	1456.72302	-1214.26855	1576.42517	1385.20300	-1237.71936	1425.94580	1395.60938	-1288.93750	1116.94080	1392.55981	-1116.10217	1345.99011	1395.52417	-1083.43750	1177.51941	1489.45654	-1299.01855	1259.84473	1234.53357	-1156.38660	1377.08728	1163.44958	-1150.20276	1182.02417	1153.54199	-1128.16614	1060.83875	1162.70947	-1083.81787	938.35504	1199.25793	-1055.26270	825.10858	1144.71375	-1065.72058	827.49701	1157.70679	-1033.40649	751.75079	1549.83325	-1163.54370	1376.78259	1631.27478	-1164.27905	1156.80420	1647.28845	-1148.65149	1045.35803	1654.74512	-1133.45178	909.45032	1622.16028	-1105.70654	812.14929	1667.47144	-1135.14978	809.53424	1660.84094	-1114.11353	738.39172	1286.70850	-1126.92493	945.72089	1522.64478	-1136.01978	944.28912	1331.10693	-1289.90149	976.62390	1480.30249	-1294.00757	978.62299	1250.76367	-1186.76343	646.47675	1295.42773	-1181.63477	469.86957	1294.39172	-1230.87842	279.95520	1339.48120	-1246.20300	70.53422	1375.03955	-1287.07947	35.82139	1366.97815	-1093.49048	34.96521	1568.92847	-1145.72742	649.31909	1547.30042	-1087.32593	478.43845	1556.38257	-1209.56348	334.13928	1522.60315	-1351.45398	169.79193	1472.15771	-1408.21643	165.88838	1503.81763	-1261.73083	60.44298	1368.96387	-1187.55774	1678.90625																		 
5	0.040	1320.63647	-1090.97668	1628.79785	1453.28418	-1093.36963	1638.48914	1326.38354	-1210.81067	1566.38037	1456.97754	-1209.45251	1576.68933	1384.81775	-1233.02734	1426.11597	1394.65771	-1283.86328	1117.00024	1392.72498	-1111.32849	1346.23547	1395.55664	-1078.49292	1177.84290	1488.41174	-1294.55591	1259.69922	1234.67468	-1150.70776	1377.67847	1163.17419	-1141.55078	1183.29504	1152.97534	-1117.11218	1062.44043	1161.96082	-1070.51416	941.00006	1198.19238	-1040.10217	827.97211	1143.61816	-1050.48181	830.39087	1156.46204	-1017.48260	754.69666	1549.72498	-1159.91528	1376.83374	1631.40222	-1161.21167	1157.05383	1647.78308	-1146.01428	1045.53711	1655.30945	-1130.65479	909.73206	1622.96497	-1102.49182	812.50214	1668.00610	-1132.29382	809.73236	1661.22253	-1111.25769	738.61774	1286.16406	-1121.58459	945.72504	1522.12073	-1130.74548	944.95642	1330.63660	-1284.53723	976.48499	1479.81226	-1288.75378	978.80273	1251.15149	-1182.00171	645.95624	1295.32617	-1178.84961	469.72101	1293.97754	-1229.64099	280.21405	1339.40796	-1246.04822	70.69583	1374.93982	-1287.10913	35.90643	1366.85022	-1093.49561	34.86311	1568.98828	-1137.01514	650.58014	1546.86279	-1076.18054	480.62207	1555.63208	-1194.88306	333.13422	1521.47485	-1332.03406	164.90083	1471.04993	-1388.82483	159.11533	1502.97266	-1238.47961	59.12294	1369.14197	-1182.13452	1679.51355																		 
